<svg width="45" height="41" viewBox="0 0 45 41" fill="none" xmlns="http://www.w3.org/2000/svg">
<path d="M33.269 20.4489H41.3492V38.0888H33.269V20.4489Z" fill="#FAFAFA"/>
<path d="M3.47363 20.4489H11.5538V38.0888H3.47363V20.4489Z" fill="#FAFAFA"/>
<path d="M41.349 38.462H33.2689C33.0687 38.462 32.9062 38.2948 32.9062 38.0888V20.4488C32.9062 20.2429 33.0687 20.0757 33.2689 20.0757H41.349C41.5492 20.0757 41.7116 20.2429 41.7116 20.4488V38.0888C41.7116 38.2948 41.5493 38.462 41.349 38.462ZM33.6315 37.7157H40.9864V20.822H33.6315V37.7157Z" fill="#FF406A"/>
<path d="M11.5538 38.462H3.4737C3.27354 38.462 3.11108 38.2948 3.11108 38.0888V20.4488C3.11108 20.2429 3.27354 20.0757 3.4737 20.0757H11.5538C11.754 20.0757 11.9164 20.2429 11.9164 20.4488V38.0888C11.9164 38.2948 11.7541 38.462 11.5538 38.462ZM3.83632 37.7157H11.1912V20.822H3.83632V37.7157Z" fill="#FF406A"/>
<path d="M41.776 18.5888H3.0466C2.9496 18.5888 2.87109 18.6698 2.87109 18.7694V22.1282C2.87109 22.228 2.94978 22.3088 3.0466 22.3088H41.776C41.873 22.3088 41.9515 22.2278 41.9515 22.1282V18.7694C41.9517 18.6698 41.873 18.5888 41.776 18.5888Z" fill="#FF406A"/>
<path d="M41.7761 22.6821H3.04643C2.74962 22.6821 2.5083 22.4338 2.5083 22.1284V18.7694C2.5083 18.464 2.74962 18.2157 3.04643 18.2157H41.776C42.0728 18.2157 42.3141 18.464 42.3141 18.7694V22.1284C42.3141 22.4338 42.0728 22.6821 41.7761 22.6821ZM3.23372 21.9358H41.589V18.9621H3.23372V21.9358ZM41.7761 18.962H41.778H41.7761Z" fill="#FF406A"/>
<path d="M9.06204 28.8361H6.32117C6.12717 28.8361 5.96997 28.6744 5.96997 28.4748V24.7686C5.96997 24.569 6.12717 24.4072 6.32117 24.4072H9.06204C9.25604 24.4072 9.41324 24.569 9.41324 24.7686V28.4748C9.41324 28.6744 9.25604 28.8361 9.06204 28.8361Z" fill="white"/>
<path d="M9.06204 35.9221H6.32117C6.12717 35.9221 5.96997 35.7604 5.96997 35.5607V31.8546C5.96997 31.655 6.12717 31.4932 6.32117 31.4932H9.06204C9.25604 31.4932 9.41324 31.655 9.41324 31.8546V35.5607C9.41324 35.7604 9.25604 35.9221 9.06204 35.9221Z" fill="white"/>
<path d="M38.7593 28.8361H36.0184C35.8244 28.8361 35.6672 28.6744 35.6672 28.4748V24.7686C35.6672 24.569 35.8244 24.4072 36.0184 24.4072H38.7593C38.9533 24.4072 39.1105 24.569 39.1105 24.7686V28.4748C39.1105 28.6744 38.9533 28.8361 38.7593 28.8361Z" fill="white"/>
<path d="M38.7593 35.9221H36.0184C35.8244 35.9221 35.6672 35.7604 35.6672 35.5607V31.8546C35.6672 31.655 35.8244 31.4932 36.0184 31.4932H38.7593C38.9533 31.4932 39.1105 31.655 39.1105 31.8546V35.5607C39.1105 35.7604 38.9533 35.9221 38.7593 35.9221Z" fill="white"/>
<path d="M9.06208 29.2092H6.32123C5.92761 29.2092 5.60742 28.8796 5.60742 28.4745V24.7686C5.60742 24.3636 5.92761 24.0339 6.32123 24.0339H9.06208C9.4557 24.0339 9.77589 24.3636 9.77589 24.7686V28.4745C9.77589 28.8798 9.4557 29.2092 9.06208 29.2092ZM9.05066 24.7688L6.32123 24.7805L6.33266 28.4749L9.05048 28.4632V24.7688H9.05066Z" fill="#FF406A"/>
<path d="M9.06208 36.2955H6.32123C5.92761 36.2955 5.60742 35.9658 5.60742 35.5608V31.8548C5.60742 31.4498 5.92761 31.1203 6.32123 31.1203H9.06208C9.4557 31.1203 9.77589 31.4498 9.77589 31.8548V35.5608C9.77589 35.9658 9.4557 36.2955 9.06208 36.2955ZM9.05066 31.8548L6.32123 31.8666L6.33266 35.5608L9.05048 35.549V31.8548H9.05066Z" fill="#FF406A"/>
<path d="M38.7594 29.2092H36.0185C35.6249 29.2092 35.3047 28.8796 35.3047 28.4745V24.7686C35.3047 24.3636 35.6249 24.0339 36.0185 24.0339H38.7594C39.153 24.0339 39.4732 24.3636 39.4732 24.7686V28.4745C39.4732 28.8798 39.153 29.2092 38.7594 29.2092ZM38.7479 24.7688L36.0185 24.7805L36.0299 28.4749L38.7478 28.4632V24.7688H38.7479Z" fill="#FF406A"/>
<path d="M38.7594 36.2955H36.0185C35.6249 36.2955 35.3047 35.9658 35.3047 35.5608V31.8548C35.3047 31.4498 35.6249 31.1203 36.0185 31.1203H38.7594C39.153 31.1203 39.4732 31.4498 39.4732 31.8548V35.5608C39.4732 35.9658 39.153 36.2955 38.7594 36.2955ZM38.7479 31.8548L36.0185 31.8666L36.0299 35.5608L38.7478 35.549V31.8548H38.7479Z" fill="#FF406A"/>
<path d="M11.5537 9.61481H33.2691V38.0891H11.5537V9.61481Z" fill="#FAFAFA"/>
<path d="M28.972 31.062H15.8509C15.5599 31.062 15.3242 30.8193 15.3242 30.52V29.8111C15.3242 29.5116 15.5601 29.2691 15.8509 29.2691H28.972C29.263 29.2691 29.4987 29.5118 29.4987 29.8111V30.52C29.4987 30.8194 29.263 31.062 28.972 31.062Z" fill="#FF406A"/>
<path d="M16.4719 31.062H28.351V38.089H16.4719V31.062Z" fill="#FF406A"/>
<path d="M20.6038 38.0889V33.4901C20.6038 33.2904 20.761 33.1287 20.955 33.1287H23.8681C24.0621 33.1287 24.2193 33.2904 24.2193 33.4901V38.0889H20.6038Z" fill="white"/>
<path d="M17.9067 18.9338H14.5851C14.3911 18.9338 14.2339 18.772 14.2339 18.5724V13.9806C14.2339 13.781 14.3911 13.6192 14.5851 13.6192H17.9067C18.1007 13.6192 18.2579 13.781 18.2579 13.9806V18.5724C18.2579 18.772 18.1007 18.9338 17.9067 18.9338Z" fill="white"/>
<path d="M24.0722 18.9337H20.7506C20.5566 18.9337 20.3994 18.772 20.3994 18.5724V13.9806C20.3994 13.781 20.5566 13.6192 20.7506 13.6192H24.0722C24.2662 13.6192 24.4234 13.781 24.4234 13.9806V18.5724C24.4234 18.772 24.2662 18.9337 24.0722 18.9337Z" fill="white"/>
<path d="M30.238 18.9337H26.9164C26.7224 18.9337 26.5652 18.772 26.5652 18.5724V13.9806C26.5652 13.781 26.7224 13.6192 26.9164 13.6192H30.238C30.432 13.6192 30.5892 13.781 30.5892 13.9806V18.5724C30.5892 18.772 30.432 18.9337 30.238 18.9337Z" fill="white"/>
<path d="M17.9067 26.374H14.5851C14.3911 26.374 14.2339 26.2122 14.2339 26.0126V21.4208C14.2339 21.2212 14.3911 21.0594 14.5851 21.0594H17.9067C18.1007 21.0594 18.2579 21.2212 18.2579 21.4208V26.0126C18.2579 26.2122 18.1007 26.374 17.9067 26.374Z" fill="white"/>
<path d="M24.0722 26.374H20.7506C20.5566 26.374 20.3994 26.2122 20.3994 26.0126V21.4208C20.3994 21.2212 20.5566 21.0595 20.7506 21.0595H24.0722C24.2662 21.0595 24.4234 21.2212 24.4234 21.4208V26.0126C24.4234 26.2122 24.2662 26.374 24.0722 26.374Z" fill="white"/>
<path d="M30.238 26.374H26.9164C26.7224 26.374 26.5652 26.2122 26.5652 26.0126V21.4208C26.5652 21.2212 26.7224 21.0595 26.9164 21.0595H30.238C30.432 21.0595 30.5892 21.2212 30.5892 21.4208V26.0126C30.5892 26.2122 30.432 26.374 30.238 26.374Z" fill="white"/>
<path d="M43.806 38.0889H1.01667C0.816326 38.0889 0.654053 38.2558 0.654053 38.462V40.2498C0.654053 40.456 0.816326 40.623 1.01667 40.623H43.806C44.0063 40.623 44.1686 40.456 44.1686 40.2498V38.462C44.1686 38.256 44.0063 38.0889 43.806 38.0889Z" fill="#FF406A"/>
<path d="M33.269 38.4621H11.5538C11.3536 38.4621 11.1912 38.295 11.1912 38.089V9.61494C11.1912 9.40897 11.3536 9.24181 11.5538 9.24181H33.269C33.4692 9.24181 33.6316 9.40897 33.6316 9.61494V38.089C33.6316 38.295 33.4692 38.4621 33.269 38.4621ZM11.9164 37.7159H32.9064V9.98807H11.9164V37.7159Z" fill="#FF406A"/>
<path d="M28.972 31.4351H15.8506C15.3603 31.4351 14.9614 31.0247 14.9614 30.52V29.8111C14.9614 29.3064 15.3603 28.896 15.8506 28.896H28.9718C29.4621 28.896 29.861 29.3064 29.861 29.8111V30.52C29.8612 31.0247 29.4623 31.4351 28.972 31.4351ZM15.8506 29.6422C15.7601 29.6422 15.6867 29.718 15.6867 29.8111V30.52C15.6867 30.6131 15.7601 30.6889 15.8506 30.6889H28.9718C29.0623 30.6889 29.1357 30.6131 29.1357 30.52V29.8111C29.1357 29.718 29.0623 29.6422 28.9718 29.6422H15.8506Z" fill="#FF406A"/>
<path d="M28.3508 38.4621H16.4718C16.2716 38.4621 16.1091 38.2949 16.1091 38.0889V31.0619C16.1091 30.856 16.2716 30.6888 16.4718 30.6888H28.3508C28.551 30.6888 28.7135 30.856 28.7135 31.0619V38.0889C28.7135 38.2949 28.551 38.4621 28.3508 38.4621ZM16.8344 37.7158H27.9882V31.4351H16.8344V37.7158Z" fill="#FF406A"/>
<path d="M24.2189 38.462H20.6036C20.4034 38.462 20.241 38.2949 20.241 38.0889V33.4901C20.241 33.085 20.5612 32.7556 20.9548 32.7556H23.8677C24.2614 32.7556 24.5816 33.085 24.5816 33.4901V38.0889C24.5816 38.2949 24.4191 38.462 24.2189 38.462ZM20.9662 38.0889H20.968H20.9662ZM20.9653 37.7158H23.8561V33.4901L20.9546 33.5018L20.9653 37.7158Z" fill="#FF406A"/>
<path d="M17.9067 19.3069H14.5851C14.1915 19.3069 13.8711 18.9772 13.8711 18.5722V13.9805C13.8711 13.5754 14.1915 13.2459 14.5851 13.2459H17.9067C18.3003 13.2459 18.6205 13.5754 18.6205 13.9805V18.5722C18.6205 18.9774 18.3003 19.3069 17.9067 19.3069ZM17.8953 13.9805L14.5851 13.9922L14.5965 18.5722L17.8953 18.5605V13.9805Z" fill="#FF406A"/>
<path d="M24.0725 19.3069H20.7509C20.3573 19.3069 20.0371 18.9772 20.0371 18.5722V13.9804C20.0371 13.5754 20.3573 13.2459 20.7509 13.2459H24.0725C24.4662 13.2459 24.7864 13.5754 24.7864 13.9804V18.5722C24.7864 18.9774 24.4662 19.3069 24.0725 19.3069ZM24.0611 13.9804L20.7509 13.9922L20.7624 18.5722L24.0609 18.5604V13.9804H24.0611Z" fill="#FF406A"/>
<path d="M30.2381 19.3069H26.9165C26.5228 19.3069 26.2026 18.9772 26.2026 18.5722V13.9804C26.2026 13.5754 26.5228 13.2459 26.9165 13.2459H30.2381C30.6317 13.2459 30.9521 13.5754 30.9521 13.9804V18.5722C30.9521 18.9774 30.6317 19.3069 30.2381 19.3069ZM30.2268 13.9804L26.9165 13.9922L26.9279 18.5722L30.2266 18.5604V13.9804H30.2268Z" fill="#FF406A"/>
<path d="M17.9067 26.7471H14.5851C14.1915 26.7471 13.8711 26.4176 13.8711 26.0126V21.4208C13.8711 21.0158 14.1915 20.6863 14.5851 20.6863H17.9067C18.3003 20.6863 18.6205 21.0158 18.6205 21.4208V26.0126C18.6205 26.4176 18.3003 26.7471 17.9067 26.7471ZM17.8953 21.4208L14.5851 21.4326L14.5965 26.0126L17.8953 26.0008V21.4208Z" fill="#FF406A"/>
<path d="M24.0725 26.7471H20.7509C20.3573 26.7471 20.0371 26.4176 20.0371 26.0126V21.4208C20.0371 21.0158 20.3573 20.6863 20.7509 20.6863H24.0725C24.4662 20.6863 24.7864 21.0158 24.7864 21.4208V26.0126C24.7864 26.4176 24.4662 26.7471 24.0725 26.7471ZM24.0611 21.4208L20.7509 21.4326L20.7624 26.0126L24.0609 26.0008V21.4208H24.0611Z" fill="#FF406A"/>
<path d="M30.2381 26.7471H26.9165C26.5228 26.7471 26.2026 26.4176 26.2026 26.0126V21.4208C26.2026 21.0158 26.5228 20.6863 26.9165 20.6863H30.2381C30.6317 20.6863 30.9521 21.0158 30.9521 21.4208V26.0126C30.9521 26.4176 30.6317 26.7471 30.2381 26.7471ZM30.2268 21.4208L26.9165 21.4326L26.9279 26.0126L30.2266 26.0008V21.4208H30.2268Z" fill="#FF406A"/>
<path d="M34.1149 7.75479H10.7077C10.6107 7.75479 10.5322 7.83576 10.5322 7.93539V11.2941C10.5322 11.3939 10.6109 11.4747 10.7077 11.4747H34.1149C34.2119 11.4747 34.2905 11.3938 34.2905 11.2941V7.93539C34.2905 7.83557 34.2119 7.75479 34.1149 7.75479Z" fill="#FF406A"/>
<path d="M34.1149 11.8479H10.7077C10.4109 11.8479 10.1694 11.5995 10.1694 11.2941V7.9352C10.1694 7.62979 10.4109 7.38129 10.7077 7.38129H34.1149C34.4117 7.38129 34.6532 7.62979 34.6532 7.9352V11.2941C34.6532 11.5995 34.4117 11.8479 34.1149 11.8479ZM10.8947 11.1016H33.9278V8.12774H10.8947V11.1016ZM34.1149 8.12755H34.1167H34.1149Z" fill="#FF406A"/>
<path d="M21.7557 11.843C22.149 12.1478 22.6909 12.1473 23.0834 11.8415L27.8693 8.11576C29.2182 7.07006 29.6924 5.20757 29.0148 3.61579C28.2792 1.88745 26.4101 0.990625 24.6505 1.52178C23.6451 1.82513 22.8481 2.54509 22.4082 3.46206C21.9684 2.54509 21.1712 1.82513 20.166 1.52178C18.3171 0.96376 16.3474 1.98222 15.6987 3.88538C15.1663 5.44694 15.7454 7.18424 17.0298 8.17994L21.7557 11.843Z" fill="#FF406A"/>
<path d="M24.7498 6.21695H23.2973V4.72237C23.2973 4.64177 23.2338 4.57666 23.1555 4.57666H21.6677C21.5894 4.57666 21.5259 4.64196 21.5259 4.72237V6.21695H20.0734C19.9951 6.21695 19.9316 6.28225 19.9316 6.36266V7.89362C19.9316 7.97421 19.9951 8.03951 20.0734 8.03951H21.5259V9.53409C21.5259 9.61469 21.5894 9.6798 21.6677 9.6798H23.1555C23.2338 9.6798 23.2973 9.6145 23.2973 9.53409V8.03951H24.7498C24.8281 8.03951 24.8916 7.97421 24.8916 7.89362V6.36266C24.8914 6.28206 24.8279 6.21695 24.7498 6.21695Z" fill="#FAFAFA"/>
<path d="M22.4186 12.4428C22.1079 12.4428 21.7969 12.3422 21.5376 12.1411L16.8116 8.47789C15.3852 7.37211 14.7867 5.43295 15.3564 3.76188C16.0637 1.68708 18.2218 0.545672 20.2681 1.16376C21.1357 1.42552 21.8897 1.98503 22.4083 2.73651C22.9268 1.98503 23.6811 1.4257 24.5487 1.16376C26.4775 0.581493 28.5406 1.57141 29.3472 3.46617C30.0957 5.22437 29.5777 7.25887 28.0877 8.41409L23.3023 12.1392C23.0422 12.3415 22.7303 12.4428 22.4186 12.4428ZM19.14 1.74268C17.7789 1.74268 16.5141 2.62084 16.0408 4.00889C15.5745 5.37679 16.0709 6.96932 17.2478 7.88181L21.9737 11.545H21.9739C22.2359 11.7488 22.6023 11.7484 22.8643 11.5441L27.6502 7.81838C28.8711 6.87193 29.2954 5.20553 28.6824 3.76561C28.0217 2.21338 26.3322 1.40332 24.7521 1.8798C23.8747 2.14473 23.1388 2.78166 22.7328 3.62737C22.6717 3.75479 22.5457 3.8352 22.4078 3.8352C22.2696 3.8352 22.1436 3.75442 22.0825 3.62718C21.6771 2.78166 20.9409 2.14473 20.0636 1.8798C19.7564 1.78708 19.4459 1.74268 19.14 1.74268Z" fill="#FF406A"/>
<path d="M43.806 40.9961H1.01675C0.616775 40.9961 0.291504 40.6614 0.291504 40.2498V38.462C0.291504 38.0504 0.616775 37.7157 1.01675 37.7157H43.806C44.206 37.7157 44.5313 38.0504 44.5313 38.462V40.2498C44.5313 40.6614 44.206 40.9961 43.806 40.9961ZM1.01675 38.462V40.2498H43.806V38.462H1.01675Z" fill="#FF406A"/>
</svg>
