<svg width="47" height="41" viewBox="0 0 47 41" fill="none" xmlns="http://www.w3.org/2000/svg">
<path d="M28.8368 26.8893L28.6451 35.1758L23.2763 38.9245L18.0034 35.2745L17.7158 26.8893C17.7158 26.8893 19.4415 25.2123 18.9622 23.5352H27.3988C27.1112 25.2123 28.8368 26.8893 28.8368 26.8893Z" fill="#65CE7C"/>
<path d="M40.4373 40.9962V38.1354C40.4373 35.3732 38.9992 32.8083 36.6983 31.4273L32.7677 29.1583L28.8371 26.8894L25.3857 35.4718L24.0436 29.6516L25.0023 28.5665H21.551L22.5097 29.6516L21.1676 35.4718L17.8121 26.8894L13.8815 29.1583L9.95085 31.4272C7.64997 32.8082 6.21191 35.3732 6.21191 38.1353V40.9961H40.4373V40.9962Z" fill="#F2F2F2"/>
<path d="M17.6107 15.8233C17.2068 14.816 16.3239 14.2353 15.6387 14.5262C14.9535 14.8171 14.7254 15.8695 15.1293 16.8767C15.5332 17.884 16.4161 18.4647 17.1013 18.1738C17.7865 17.8829 18.0146 16.8305 17.6107 15.8233Z" fill="#65CE7C"/>
<path d="M28.8628 15.826C28.4589 16.8333 28.687 17.8857 29.3722 18.1766C30.0574 18.4675 30.9403 17.8868 31.3442 16.8795C31.748 15.8723 31.52 14.8199 30.8348 14.529C30.1495 14.2381 29.2667 14.8188 28.8628 15.826Z" fill="#65CE7C"/>
<path d="M30.946 13.0784C30.946 13.4731 30.946 13.9663 30.8501 14.4595C30.2749 19.096 27.1112 26.5933 23.2764 26.5933C19.4415 26.5933 16.2778 19.096 15.7026 14.3608C15.6067 13.9662 15.6067 13.473 15.6067 13.0783C15.6067 8.73781 19.058 5.18645 23.2763 5.18645C27.4945 5.18645 30.946 8.7379 30.946 13.0784Z" fill="#65CE7C"/>
<path d="M15.8943 15.8407C15.7026 14.7555 15.7984 13.2758 16.4695 12.4866C16.4695 12.4866 15.8943 7.45546 19.4415 7.75141C19.4415 7.75141 22.3176 8.73793 27.6863 7.75141C27.6863 7.75141 29.8913 7.65273 29.5079 10.0203C29.5079 10.0203 28.9327 12.1906 30.0831 12.6838L30.5625 15.742L31.0418 13.4731C31.9046 9.32982 30.9459 5.18656 27.2069 3.3122C27.111 3.3122 27.111 3.3122 27.111 3.3122C27.5904 2.62163 28.5491 2.91758 28.5491 2.91758C22.2217 -1.22568 18.0034 2.62163 18.0034 2.62163C13.4975 6.86357 14.9356 11.796 14.9356 11.796C14.4563 13.5717 15.8943 15.8407 15.8943 15.8407Z" fill="#65CE7C"/>
<path d="M9.1835 30.2428L13.1142 27.9739L16.6614 25.9023V25.8036C17.0449 25.3104 17.3325 24.7185 17.6201 24.1266C16.7573 22.7455 15.9903 21.1671 15.4151 19.3914C14.744 18.9968 14.1688 18.3063 13.8812 17.5171C13.4977 16.6292 13.4977 15.6427 13.7853 14.7549C13.4018 13.6698 13.21 12.6832 13.4018 11.7954C13.3059 11.2035 13.1141 9.92103 13.3059 8.4413C10.8133 8.34262 9.37521 9.72376 9.37521 9.72376C5.92389 12.9792 6.97843 16.7278 6.97843 16.7278C6.78672 17.517 7.07433 18.4048 7.45775 19.0954C7.17014 19.3913 7.07424 20.0819 7.36185 20.6738C7.55356 21.2657 8.03297 21.5616 8.41639 21.6603C8.89571 23.1401 9.56683 24.6198 10.3338 25.8036C10.6214 27.086 9.37503 28.3684 9.37503 28.3684L6.30722 30.1441L3.14368 31.8212C1.32212 32.9063 0.267578 34.7807 0.267578 36.951V37.9375H4.67764C4.77345 34.7807 6.49911 31.8212 9.1835 30.2428Z" fill="#65CE7C"/>
<path d="M43.409 31.8218L40.437 30.0461L37.3692 28.2704C37.3692 28.2704 36.1228 26.9879 36.4104 25.7055C37.1774 24.5218 37.8485 23.042 38.3278 21.5623C38.7113 21.4636 39.1906 21.0691 39.3823 20.5758C39.67 19.7866 39.4782 18.9974 38.9988 18.8001L39.1905 18.0109C39.8617 14.8542 39.0946 11.5988 36.3144 10.2176C36.2185 10.1189 36.1227 10.1189 36.1227 10.1189C36.5062 9.62573 37.1773 9.823 37.1773 9.823C35.4516 8.63921 33.9177 8.34326 32.5755 8.34326C32.959 10.0203 32.8631 11.8946 32.4796 13.8676V14.0648C33.0548 14.9527 33.2465 16.2352 32.6713 17.4189C32.3837 18.2081 31.8085 18.8987 31.1374 19.2933C30.5621 21.069 29.7952 22.6474 28.9324 24.0285C29.22 24.6203 29.5076 25.2122 29.8911 25.7055V25.8041L37.2731 30.1447C40.0533 31.7231 41.6831 34.6825 41.779 37.938H46.2851V36.9514C46.2851 34.8798 45.1347 32.9069 43.409 31.8218Z" fill="#65CE7C"/>
<path d="M35.0683 35.8663H33.2468V33.992H32.0005V35.8663H30.179V37.1488H32.0005V39.0231H33.2468V37.1488H35.0683V35.8663Z" fill="#65CE7C"/>
</svg>
