<svg width="21" height="22" viewBox="0 0 21 22" fill="none" xmlns="http://www.w3.org/2000/svg">
<path d="M4.89794 10.7487H11.4935C11.7285 10.7487 11.9191 10.5581 11.9191 10.3232C11.9191 10.0882 11.7285 9.89764 11.4935 9.89764H4.89794C4.66283 9.89764 4.47241 10.0882 4.47241 10.3232C4.47241 10.5581 4.66283 10.7487 4.89794 10.7487Z" fill="black" fill-opacity="0.5"/>
<path d="M4.89794 10.8237H11.4935C11.7699 10.8237 11.9941 10.5996 11.9941 10.3232C11.9941 10.0468 11.7699 9.82264 11.4935 9.82264H4.89794C4.6214 9.82264 4.39741 10.0468 4.39741 10.3232C4.39741 10.5995 4.6214 10.8237 4.89794 10.8237Z" stroke="black" stroke-opacity="0.5" stroke-width="0.15"/>
<path d="M8.84664 12.6636H4.89793C4.66283 12.6636 4.47241 12.8541 4.47241 13.0891C4.47241 13.3241 4.66283 13.5146 4.89793 13.5146H8.84664C9.08161 13.5146 9.27216 13.3241 9.27216 13.0891C9.27216 12.8541 9.08161 12.6636 8.84664 12.6636Z" fill="black" fill-opacity="0.5"/>
<path d="M8.84664 12.5886H4.89793C4.6214 12.5886 4.39741 12.8127 4.39741 13.0891C4.39741 13.3655 4.6214 13.5896 4.89793 13.5896H8.84664C9.12303 13.5896 9.34716 13.3655 9.34716 13.0891C9.34716 12.8127 9.12303 12.5886 8.84664 12.5886Z" stroke="black" stroke-opacity="0.5" stroke-width="0.15"/>
<path d="M16.2337 11.7188V4.36589C16.2335 3.19091 15.2809 2.23867 14.1061 2.23827H12.3615V1.42552C12.3615 1.19042 12.171 1 11.9359 1C11.701 1 11.5104 1.19042 11.5104 1.42552V2.23827H5.7233V1.42552C5.7233 1.19042 5.53288 1 5.29778 1C5.06281 1 4.87226 1.19042 4.87226 1.42552V2.23827H3.12761C1.95277 2.23867 1.00053 3.19091 1 4.36589V15.8933C1.00053 17.0682 1.95277 18.0204 3.12761 18.0209H11.0042C11.8229 20.118 14.0186 21.3352 16.2309 20.9187C18.4433 20.5024 20.0461 18.5701 20.0465 16.3188C20.0507 14.0338 18.4039 12.1274 16.2337 11.7188ZM3.132 3.08932H4.87665V3.90207C4.87665 4.13704 5.06707 4.32759 5.30217 4.32759C5.53714 4.32759 5.72769 4.13704 5.72769 3.90207V3.08932H11.5148V3.90207C11.5148 4.13704 11.7052 4.32759 11.9403 4.32759C12.1753 4.32759 12.3659 4.13704 12.3659 3.90207V3.08932H14.1105C14.8146 3.09131 15.3849 3.66165 15.3871 4.36589V5.39565H1.85543V4.36589C1.85597 3.66098 2.42723 3.08985 3.132 3.08932ZM3.132 17.1699C2.42776 17.1679 1.85743 16.5974 1.85543 15.8933V6.24244H15.3827V11.6381H15.3699C13.9802 11.6402 12.6631 12.2587 11.774 13.327C10.8848 14.3952 10.5156 15.8029 10.7658 17.1699H3.132ZM15.3699 20.1485C13.2549 20.1485 11.5402 18.4339 11.5402 16.3188C11.5402 14.2037 13.2549 12.4891 15.3699 12.4891C17.485 12.4891 19.1996 14.2037 19.1996 16.3188C19.1964 18.4326 17.4837 20.1453 15.3699 20.1485Z" fill="black" fill-opacity="0.5"/>
<path d="M12.4365 2.16327H14.1061H14.1061C15.3224 2.16369 16.3084 3.14948 16.3087 4.36587V4.36589V11.657C18.4833 12.0962 20.1257 14.0184 20.1215 16.319M12.4365 2.16327L20.0465 16.3188M12.4365 2.16327V1.42552C12.4365 1.149 12.2125 0.925 11.9359 0.925C11.6596 0.925 11.4354 1.14898 11.4354 1.42552V2.16327H5.7983V1.42552C5.7983 1.149 5.5743 0.925 5.29778 0.925C5.02141 0.925 4.79726 1.14898 4.79726 1.42552V2.16327H3.12761H3.12759C1.91134 2.16369 0.925551 3.14949 0.925 4.36585V4.36589L0.925 15.8933L0.925 15.8933C0.925551 17.1096 1.91134 18.0954 3.12758 18.0959H3.12761H10.9532M12.4365 2.16327L11.0042 18.0209M20.1215 16.319L20.0465 16.3188M20.1215 16.319C20.1215 16.3189 20.1215 16.3189 20.1215 16.3188L20.0465 16.3188M20.1215 16.319C20.1211 18.6063 18.4925 20.5694 16.2448 20.9924C14.0139 21.4124 11.7996 20.1973 10.9532 18.0959M20.0465 16.3188C20.0461 18.5701 18.4433 20.5024 16.2309 20.9187C14.0186 21.3352 11.8229 20.118 11.0042 18.0209M10.9532 18.0959H11.0042V18.0209M10.9532 18.0959C10.9469 18.0801 10.9405 18.0642 10.9343 18.0482L11.0042 18.0209M1.93043 6.31744V15.8932C1.93237 16.5559 2.46916 17.0929 3.132 17.0949C3.13207 17.0949 3.13214 17.0949 3.13222 17.0949M1.93043 6.31744L3.132 17.1699L3.13222 17.0949M1.93043 6.31744H15.3077V11.5636C13.9186 11.5838 12.6064 12.2095 11.7163 13.279C10.8321 14.3413 10.454 15.734 10.6766 17.0949M1.93043 6.31744L10.6766 17.0949M3.13222 17.0949L10.6766 17.0949M3.13222 17.0949L10.6766 17.0949M3.13206 3.16432H4.80165V3.90207C4.80165 4.17844 5.02563 4.40259 5.30217 4.40259C5.57856 4.40259 5.80269 4.17846 5.80269 3.90207V3.16432H11.4398V3.90207C11.4398 4.17844 11.6638 4.40259 11.9403 4.40259C12.2167 4.40259 12.4409 4.17846 12.4409 3.90207V3.16432L14.1103 3.16432C14.1103 3.16432 14.1103 3.16432 14.1104 3.16432C14.7732 3.16624 15.3101 3.70314 15.3121 4.36611V5.32065H1.93043V4.36594C1.93093 3.70242 2.46866 3.16482 3.13206 3.16432ZM15.3698 20.0735C13.2963 20.0735 11.6152 18.3925 11.6152 16.3188C11.6152 14.2451 13.2963 12.5641 15.3699 12.5641C17.4436 12.5641 19.1246 14.2451 19.1246 16.3187C19.1215 18.3912 17.4422 20.0704 15.3698 20.0735Z" stroke="black" stroke-opacity="0.5" stroke-width="0.15"/>
<path d="M17.3401 14.7912L14.8127 17.2039L13.5062 15.8933C13.3406 15.7276 13.072 15.7276 12.9063 15.8933C12.7405 16.059 12.7405 16.3276 12.9063 16.4933L14.5104 18.0975C14.5902 18.1778 14.6993 18.2224 14.8127 18.2209C14.9225 18.2218 15.0281 18.179 15.1062 18.1016L17.9316 15.3996C18.013 15.3218 18.0601 15.215 18.0626 15.1024C18.0648 14.9897 18.0224 14.8808 17.9444 14.7997C17.7787 14.6335 17.5105 14.6296 17.3401 14.7912Z" fill="black" fill-opacity="0.5"/>
<path d="M17.2883 14.7369L17.2885 14.7368C17.4884 14.5472 17.8031 14.5517 17.9975 14.7468L17.9984 14.7477L17.9984 14.7477C18.0904 14.8432 18.1402 14.9714 18.1376 15.1039L18.1376 15.104C18.1346 15.2366 18.0792 15.3622 17.9834 15.4538L15.1585 18.1554C15.0664 18.2464 14.9421 18.2968 14.8128 18.2959M17.2883 14.7369L13.5062 15.8933C13.3406 15.7276 13.072 15.7276 12.9063 15.8933C12.7405 16.059 12.7405 16.3276 12.9063 16.4933L12.8533 16.5463L12.8533 16.5463L14.4572 18.1503C14.4572 18.1504 14.4573 18.1504 14.4573 18.1504C14.5512 18.2449 14.6795 18.2974 14.8128 18.2959M17.2883 14.7369L14.814 17.099L17.2883 14.7369ZM14.8128 18.2959C14.8126 18.2959 14.8123 18.2959 14.812 18.2959L14.8127 18.2209M14.8128 18.2959C14.8131 18.2959 14.8134 18.2959 14.8136 18.2959L14.8127 18.2209M14.8127 18.2209C14.9225 18.2218 15.0281 18.179 15.1062 18.1016L17.9316 15.3996C18.013 15.3218 18.0601 15.215 18.0626 15.1024C18.0648 14.9897 18.0224 14.8808 17.9444 14.7997L14.5104 18.0975C14.5902 18.1778 14.6993 18.2224 14.8127 18.2209Z" stroke="black" stroke-opacity="0.5" stroke-width="0.15"/>
</svg>
